<?xml version="1.0" encoding="UTF-8" standalone="no"?><svg xmlns="http://www.w3.org/2000/svg" xmlns:xlink="http://www.w3.org/1999/xlink" contentStyleType="text/css" height="480px" preserveAspectRatio="none" style="width:627px;height:480px;background:#FFFFFF;" version="1.1" viewBox="0 0 627 480" width="627px" zoomAndPan="magnify"><defs/><g><line style="stroke:#181818;stroke-width:0.5;stroke-dasharray:5.0,5.0;" x1="60" x2="60" y1="81.2969" y2="399.3594"/><line style="stroke:#181818;stroke-width:0.5;stroke-dasharray:5.0,5.0;" x1="248.5" x2="248.5" y1="81.2969" y2="399.3594"/><line style="stroke:#181818;stroke-width:0.5;stroke-dasharray:5.0,5.0;" x1="576.5" x2="576.5" y1="81.2969" y2="399.3594"/><text fill="#000000" font-family="sans-serif" font-size="14" lengthAdjust="spacing" textLength="104" x="5" y="77.9951">Пользователь</text><ellipse cx="60" cy="13.5" fill="#E2E2F0" rx="8" ry="8" style="stroke:#181818;stroke-width:0.5;"/><path d="M60,21.5 L60,48.5 M47,29.5 L73,29.5 M60,48.5 L47,63.5 M60,48.5 L73,63.5 " fill="none" style="stroke:#181818;stroke-width:0.5;"/><text fill="#000000" font-family="sans-serif" font-size="14" lengthAdjust="spacing" textLength="104" x="5" y="411.3545">Пользователь</text><ellipse cx="60" cy="423.1563" fill="#E2E2F0" rx="8" ry="8" style="stroke:#181818;stroke-width:0.5;"/><path d="M60,431.1563 L60,458.1563 M47,439.1563 L73,439.1563 M60,458.1563 L47,473.1563 M60,458.1563 L73,473.1563 " fill="none" style="stroke:#181818;stroke-width:0.5;"/><rect fill="#E2E2F0" height="30.2969" rx="2.5" ry="2.5" style="stroke:#181818;stroke-width:0.5;" width="77" x="210.5" y="50"/><text fill="#000000" font-family="sans-serif" font-size="14" lengthAdjust="spacing" textLength="63" x="217.5" y="69.9951">Система</text><rect fill="#E2E2F0" height="30.2969" rx="2.5" ry="2.5" style="stroke:#181818;stroke-width:0.5;" width="77" x="210.5" y="398.3594"/><text fill="#000000" font-family="sans-serif" font-size="14" lengthAdjust="spacing" textLength="63" x="217.5" y="418.3545">Система</text><rect fill="#E2E2F0" height="30.2969" rx="2.5" ry="2.5" style="stroke:#181818;stroke-width:0.5;" width="89" x="532.5" y="50"/><text fill="#000000" font-family="sans-serif" font-size="14" lengthAdjust="spacing" textLength="75" x="539.5" y="69.9951">Бухгалтер</text><rect fill="#E2E2F0" height="30.2969" rx="2.5" ry="2.5" style="stroke:#181818;stroke-width:0.5;" width="89" x="532.5" y="398.3594"/><text fill="#000000" font-family="sans-serif" font-size="14" lengthAdjust="spacing" textLength="75" x="539.5" y="418.3545">Бухгалтер</text><polygon fill="#181818" points="237,108.4297,247,112.4297,237,116.4297,241,112.4297" style="stroke:#181818;stroke-width:1.0;"/><line style="stroke:#181818;stroke-width:1.0;" x1="60" x2="243" y1="112.4297" y2="112.4297"/><text fill="#000000" font-family="sans-serif" font-size="13" lengthAdjust="spacing" textLength="165" x="67" y="107.3638">Выбор периода расчета</text><line style="stroke:#181818;stroke-width:1.0;" x1="249" x2="291" y1="141.5625" y2="141.5625"/><line style="stroke:#181818;stroke-width:1.0;" x1="291" x2="291" y1="141.5625" y2="154.5625"/><line style="stroke:#181818;stroke-width:1.0;" x1="250" x2="291" y1="154.5625" y2="154.5625"/><polygon fill="#181818" points="260,150.5625,250,154.5625,260,158.5625,256,154.5625" style="stroke:#181818;stroke-width:1.0;"/><text fill="#000000" font-family="sans-serif" font-size="13" lengthAdjust="spacing" textLength="201" x="256" y="136.4966">Загрузка данных из "Работы"</text><line style="stroke:#181818;stroke-width:1.0;" x1="249" x2="291" y1="183.6953" y2="183.6953"/><line style="stroke:#181818;stroke-width:1.0;" x1="291" x2="291" y1="183.6953" y2="196.6953"/><line style="stroke:#181818;stroke-width:1.0;" x1="250" x2="291" y1="196.6953" y2="196.6953"/><polygon fill="#181818" points="260,192.6953,250,196.6953,260,200.6953,256,196.6953" style="stroke:#181818;stroke-width:1.0;"/><text fill="#000000" font-family="sans-serif" font-size="13" lengthAdjust="spacing" textLength="273" x="256" y="178.6294">Получение типов работ из "Типы работ"</text><line style="stroke:#181818;stroke-width:1.0;" x1="249" x2="291" y1="225.8281" y2="225.8281"/><line style="stroke:#181818;stroke-width:1.0;" x1="291" x2="291" y1="225.8281" y2="238.8281"/><line style="stroke:#181818;stroke-width:1.0;" x1="250" x2="291" y1="238.8281" y2="238.8281"/><polygon fill="#181818" points="260,234.8281,250,238.8281,260,242.8281,256,238.8281" style="stroke:#181818;stroke-width:1.0;"/><text fill="#000000" font-family="sans-serif" font-size="13" lengthAdjust="spacing" textLength="244" x="256" y="220.7622">Получение ставок для типов работ</text><line style="stroke:#181818;stroke-width:1.0;" x1="249" x2="291" y1="267.9609" y2="267.9609"/><line style="stroke:#181818;stroke-width:1.0;" x1="291" x2="291" y1="267.9609" y2="280.9609"/><line style="stroke:#181818;stroke-width:1.0;" x1="250" x2="291" y1="280.9609" y2="280.9609"/><polygon fill="#181818" points="260,276.9609,250,280.9609,260,284.9609,256,280.9609" style="stroke:#181818;stroke-width:1.0;"/><text fill="#000000" font-family="sans-serif" font-size="13" lengthAdjust="spacing" textLength="314" x="256" y="262.895">Применение премирования и депремирования</text><line style="stroke:#181818;stroke-width:1.0;" x1="249" x2="291" y1="310.0938" y2="310.0938"/><line style="stroke:#181818;stroke-width:1.0;" x1="291" x2="291" y1="310.0938" y2="323.0938"/><line style="stroke:#181818;stroke-width:1.0;" x1="250" x2="291" y1="323.0938" y2="323.0938"/><polygon fill="#181818" points="260,319.0938,250,323.0938,260,327.0938,256,323.0938" style="stroke:#181818;stroke-width:1.0;"/><text fill="#000000" font-family="sans-serif" font-size="13" lengthAdjust="spacing" textLength="179" x="256" y="305.0278">Расчет заработной платы</text><polygon fill="#181818" points="565,348.2266,575,352.2266,565,356.2266,569,352.2266" style="stroke:#181818;stroke-width:1.0;"/><line style="stroke:#181818;stroke-width:1.0;" x1="249" x2="571" y1="352.2266" y2="352.2266"/><text fill="#000000" font-family="sans-serif" font-size="13" lengthAdjust="spacing" textLength="172" x="256" y="347.1606">Сохранение результатов</text><polygon fill="#181818" points="71,377.3594,61,381.3594,71,385.3594,67,381.3594" style="stroke:#181818;stroke-width:1.0;"/><line style="stroke:#181818;stroke-width:1.0;" x1="65" x2="248" y1="381.3594" y2="381.3594"/><text fill="#000000" font-family="sans-serif" font-size="13" lengthAdjust="spacing" textLength="155" x="77" y="376.2935">Отображение расчета</text><!--MD5=[97092354588056fb48d052114d4238fe]
@startuml
actor Пользователь
participant "Система" as System

Пользователь -> System: Выбор периода расчета
System -> System: Загрузка данных из "Работы"
System -> System: Получение типов работ из "Типы работ"
System -> System: Получение ставок для типов работ
System -> System: Применение премирования и депремирования
System -> System: Расчет заработной платы
System -> "Бухгалтер": Сохранение результатов
System -> Пользователь: Отображение расчета
@enduml

PlantUML version 1.2022.7(Mon Aug 22 17:01:30 UTC 2022)
(GPL source distribution)
Java Runtime: OpenJDK Runtime Environment
JVM: OpenJDK 64-Bit Server VM
Default Encoding: UTF-8
Language: en
Country: null
--></g></svg>